<?xml version="1.0" encoding="UTF-8"?>
<svg id="Layer_3" data-name="Layer 3" xmlns="http://www.w3.org/2000/svg" viewBox="0 0 997.73 996.61">
  <defs>
    <style>
      .cls-1 {
        fill: #00b49d;
        stroke-width: 0px;
      }
    </style>
  </defs>
  <g>
    <path class="cls-1" d="M189.43,261.47c19.63,8.53,38.81,16.84,58.11,25.23h.01c2.26.98,4.51,1.96,6.78,2.94.18-.24.68-.95,1.18-1.63-1.57-1.77-3.14-3.54-4.7-5.3-12.87-14.49-25.65-28.91-38.57-43.45-7.63,7.43-15.11,14.71-22.81,22.21Z"/>
    <path class="cls-1" d="M175.71,274.92c-17.71,17.42-35.5,34.74-53.29,52.07-1.23,1.19-2.48,2.37-3.74,3.52-1.88,1.74-3.77,3.47-5.64,5.21,1.06,1.96,2.15,3.95,3.01,5.54,2.62-.59,5.23-1.18,7.84-1.77,38.29-8.65,76.32-17.25,114.4-25.84,0-.11,0-.22,0-.33.17-4.59.98-8.99,2.34-13.14-20.11-8.55-40.16-17.23-60.21-25.96-1.91-.83-3.11-.88-4.72.71Z"/>
    <path class="cls-1" d="M176.83,254.06c8.74-8.2,17.3-16.61,25.87-24.93-.31-.56-.42-.89-.65-1.15-7.64-8.67-15.24-17.37-23.02-25.91-.7-.78-2.72-1.04-3.83-.66-14.94,5.18-29.83,10.45-44.65,15.7,1.28,4.64,1.87,9.55,1.68,14.61-.06,1.65-.21,3.26-.43,4.85,1.05.44,2.09.88,3.13,1.33,12.57,5.45,25.11,10.98,37.71,16.33,1.2.51,3.4.57,4.18-.17Z"/>
    <path class="cls-1" d="M186.29,182.76c13.37-5.03,26.91-9.64,40.37-14.41,5.94-2.1,11.88-4.2,17.73-6.28-.16-1.93-.21-3.9-.14-5.88.12-3.16.55-6.24,1.23-9.2-36.62-10.95-72.99-21.83-109.58-32.76-1.26,4.35-3.11,8.43-5.45,12.16,16.11,18.1,32.26,36.19,48.29,54.36,2.26,2.57,4.1,3.3,7.54,2.01Z"/>
    <path class="cls-1" d="M191.87,195.44c7.18,8.12,13.91,15.71,21,23.72,12.78-12.45,25.32-24.68,37.87-36.92-1.22-2.07-2.28-4.26-3.17-6.52-18.52,6.56-36.97,13.1-55.7,19.73Z"/>
    <path class="cls-1" d="M504.05,336.97c-1.54-8.01-4.97-14.98-12.91-18.72-10.07-4.75-20.67-4.74-31.14-2.45-7.47,1.63-14.66,4.58-21.91,7.1-10.32,3.59-20.89,6.22-31.76,7.04-8.13.61-16.42-.36-22.39-6.61-6.39-6.7-12.41-13.85-17.83-21.35-9.02-12.5-14.97-26.54-15.97-42-.82-12.67-.26-25.44-.13-38.16.03-3.11.36-6.33,1.22-9.3,4.23-14.49,15.41-22.81,28.03-28.89,5.83-2.81,13.05-3.38,19.69-3.7,10.57-.52,20.72,1.99,30.53,6.2,11.18,4.8,22.75,8.49,34.82,10.48,10.59,1.74,25.51-6.73,27.63-17.28,1.82-9.05,3.06-18.3,3.6-27.51.49-8.37-.12-16.82-.62-25.21-.37-6.25-.95-12.53-2.11-18.66-1.2-6.35-3.33-12.51-4.83-18.8-2.41-10.12-4.78-20.25-6.91-30.43-1.66-7.94-3.07-15.93-4.34-23.94-1.67-10.51-3.1-21.05-4.67-31.81h-4.53c-147.68,0-295.37,0-443.05.06-3.44,0-6.93.68-10.31,1.43-5.61,1.24-7.95.32-6.44,9.61.11.68.03,1.39.01,2.09-.24,10.41-.58,20.82-.7,31.24-.28,25.31-.62,50.62-.63,75.93,0,24.61.37,49.21.57,73.82.25,29.41.68,58.83.69,88.24,0,29.19-.43,58.38-.65,87.58-.25,33.05-.47,66.11-.72,99.16,0,1.17-.26,2.33-.26,3.5-.02,8.64-.01,17.27-.01,26.08,12.22-2.35,24.46-4.76,36.73-7.03,8.81-1.63,17.64-3.2,26.5-4.57,6.07-.94,12.2-1.52,18.3-2.23,11.98-1.39,23.93-3.56,35.94-3.96,16.48-.54,33.01-.02,49.5.6,12.62.47,24.94,2.34,36.12,9.3,6.43,4,11.13,8.83,12.5,16.24,1.09,5.91,1.86,11.93,2.08,17.93.23,6.4-.14,12.85-.66,19.25-.58,7.15-1.48,14.29-2.5,21.4-1.49,10.41-3.9,20.6-2.58,31.4,1.48,12.17,7.1,21.36,17.05,27.71,12.88,8.22,26.59,12.62,42.4,8.8,17.51-4.23,29.57-14.07,34.54-31.29,4.38-15.17,3.41-30.87.19-46.06-1.85-8.71-5.77-17.17-9.87-25.17-6.69-13.04,1.4-33.71,12.87-37.72,5.63-1.97,11.06-4.52,16.76-6.24,10.84-3.27,22.06-4.33,33.34-4.98,14.54-.83,29.06-2.28,43.6-2.62,11.18-.26,22.41.41,33.56,1.37,9.76.84,19.44,2.7,29.16,4.05,6.26.87,12.55,1.62,18.63,2.4,4.36-15,6.25-29.69,6.98-44.58.36-7.33,1.16-14.65,1.98-21.95.83-7.39,2-14.73,2.87-22.11,1.05-8.98,2.05-17.98,2.87-26.99,1.14-12.57,1.62-25.18-.79-37.65ZM340.59,159.85c-1.01,26.61-23.4,47.35-49.99,46.34-12.12-.46-23.04-5.35-31.22-13.07-12.34,12.07-24.71,24.15-37.23,36.4,13.18,14.86,26.26,29.59,39.38,44.39,7.79-4.72,16.99-7.28,26.76-6.91,26.6,1.01,47.35,23.39,46.34,49.98-1.01,26.61-23.4,47.35-49.99,46.34-21.73-.82-39.55-15.9-44.8-35.9-37.41,8.48-74.75,16.92-112.21,25.4.34,2.63.47,5.32.36,8.06-1.01,26.6-23.39,47.34-49.99,46.33-26.6-1.01-47.34-23.39-46.33-49.98,1.01-26.61,23.39-47.35,49.98-46.34,10.25.39,19.64,3.95,27.24,9.7,18.13-17.7,36.3-35.44,54.71-53.43-2.8-1.25-5.26-2.38-7.76-3.47-9.53-4.11-19.08-8.18-28.6-12.32-8.19,16.43-25.45,27.43-45,26.69-26.6-1.01-47.35-23.4-46.34-49.99,1.01-26.6,23.4-47.35,49.99-46.34,16.6.63,30.93,9.58,39.1,22.7,14.08-5,28.22-10.01,42.77-15.16-15.58-17.53-30.96-34.82-46.41-52.2-8.94,7.83-20.76,12.37-33.56,11.89-26.6-1.01-47.34-23.39-46.33-49.98,1.01-26.61,23.39-47.35,49.98-46.34,25.95.98,46.31,22.29,46.38,48.02,24.35,6.51,90.63,26.35,112.54,33.82,8.58-15.26,25.19-25.3,43.89-24.59,26.6,1.01,47.35,23.39,46.34,49.98Z"/>
  </g>
  <g>
    <path class="cls-1" d="M384.52,830.35c-4.34-3.56-9.51-4.63-15.93-5.14-5.62-.45-8.45-3.19-9.19-8.89-1.92-14.89-6.04-28.64-12.24-40.88-16.59-32.76-42.8-54.89-77.91-65.76-6.42-1.99-12.72-3.69-19.27-2.72-1.45.22-2.89-.16-4.17-.5l-.18-.05c-1.52-.4-2.06-.13-2.62.57-.67.83-1.75,1.94-3.09,2.52-9.94,4.29-16.1,11.32-18.84,21.51-2.14,7.94-.27,16.17,4.99,22.02,5.22,5.81,12.79,8.41,20.76,7.15,7.18-1.14,12.07-4.67,14.55-10.49,1.47-3.46.21-7.57-2.88-9.35-3.49-2.01-7.11-1.31-9.7,1.88-3.16,3.89-8.31,4.66-12.23,1.83-3.98-2.86-4.8-8.2-1.91-12.42,4.55-6.65,12.4-10.37,20.98-9.97,8.86.42,16.58,5.08,20.66,12.45,5.93,10.72,3.78,23.59-5.47,32.78-14.56,14.47-38.5,15.07-54.5,1.36-13.54-11.6-17.62-31.81-9.93-49.14,2.22-5.01,5.14-9.44,9.06-13.73-37.29,5.44-67.08,23.8-88.56,54.6-6.34,9.09-11.41,19.24-15.5,31.03-1.79,5.17-5.01,7.26-10.4,6.77-.83-.08-1.65-.17-2.48-.26-1.1-.12-2.2-.25-3.3-.33-.55-.04-1.09-.06-1.63-.06-9.77,0-18.06,6.63-20.46,16.6-2.33,9.66,3.31,20.35,12.57,23.82,2.62.98,5.61,1.38,8.5,1.76.94.12,1.88.25,2.81.39,5.09.78,7.87,3.56,8.5,8.51,3.72,29.09,15.89,54.26,36.17,74.8,38.98,39.48,100.53,49.08,149.69,23.33,29.71-15.56,50.62-39.92,62.13-72.38,1.86-5.25,5.13-7.36,10.57-6.85.68.06,1.37.13,2.05.21,1.52.16,3.09.33,4.61.39,8.94.36,17.08-5.25,20.29-13.95,3.02-8.17.35-17.8-6.49-23.41ZM173.81,823.62c.75-7.47,7.45-12.94,14.94-12.23,3.72.36,7.06,2.15,9.4,5.03,2.31,2.84,3.36,6.41,2.95,10.04-.78,6.97-6.75,12.17-13.64,12.17-.47,0-.94-.02-1.42-.07-7.5-.78-12.99-7.48-12.24-14.94ZM265.69,901.7c-7.93,10.02-18.24,15.99-30.66,17.77-2.76.39-5.57.46-7.83.5-.89.02-1.71.04-2.43.07h-.15s-.15-.01-.15-.01c-18-2.68-30.56-11.2-38.4-26.05-1.34-2.53-1.67-5.22-.93-7.57.69-2.18,2.21-3.93,4.4-5.06,4.5-2.32,9.49-.51,12.13,4.4,5.69,10.55,14.38,16.12,25.84,16.53,9.5.35,17.6-3.43,24.06-11.2,3.02-3.64,6.95-4.86,10.77-3.34,2.61,1.04,4.5,3.13,5.21,5.76.75,2.78.07,5.77-1.86,8.21ZM291.66,835.67c-.71,7-6.67,12.25-13.6,12.25-.45,0-.9-.02-1.36-.07-7.49-.74-13.01-7.41-12.3-14.87.34-3.64,2.08-6.92,4.89-9.24,2.85-2.34,6.48-3.43,10.21-3.05h0c7.46.76,12.91,7.47,12.16,14.97Z"/>
    <path class="cls-1" d="M631.29,758.66c-.3-10.74-1.12-21.59-4.8-31.88-1.87-5.22-3.59-10.62-6.42-15.31-2.29-3.81-4.98-7.7-10.05-9.17-10.9-3.16-21.6-2.6-32.32.53-13.18,3.86-25.85,9.32-39.67,11.25-9.88,1.38-18.5.33-26.49-6.05-5.8-4.63-9.67-10.34-13.14-16.81-8.26-15.4-12.85-31.58-12.6-49.09.27-18.51.5-37.02.69-55.53.02-2.33-.46-4.66-.41-6.98.36-17.43.76-34.87,1.23-52.3.18-6.67.58-13.33.9-20.4-7.53-1.26-14.76-2.95-22.1-3.6-14.38-1.28-28.82-1.99-43.23-2.94-1.04-.07-2.08-.21-3.12-.33-4.83-.58-9.68-1.73-14.49-1.62-6.71.16-13.4,1.2-20.09,1.96-12.1,1.37-24.3,2.19-36.24,4.45-8.65,1.63-17.18,4.64-25.32,8.07-7.86,3.32-8.71,8.09-4.55,15.52,2.43,4.35,4.55,8.89,6.65,13.41,5.27,11.35,5.83,23.61,6.3,35.76.57,14.72-.73,29.19-6.9,43.01-4.98,11.15-11.37,20.78-22.24,26.87-8.99,5.04-18.77,7.84-28.82,9.78-7.45,1.44-15.05,2.62-22.49.6-5.43-1.47-10.62-3.9-15.81-6.15-12.77-5.52-23.11-13.15-29.86-26.27-8.01-15.58-8.26-31.42-6.14-47.86,1.24-9.63,3.57-19.16,4.31-28.81.64-8.34-.15-16.81-.54-25.21-.33-7-.46-7.08-7.03-9.14-14.3-4.48-29.19-4.73-43.94-5.47-11.58-.57-23.22-.33-34.83-.03-6.74.17-13.49,1.01-20.19,1.82-9.11,1.1-18.2,2.43-27.28,3.74-10.34,1.49-20.74,2.69-30.98,4.7-9.81,1.93-19.38,5.01-29.18,7.01-3.89.8-5.23,2.39-5.26,6.11-.15,16.04-.43,32.08-.67,48.12-.22,14.64-.46,29.27-.7,43.91-.22,13.46-.46,26.92-.71,40.39-.22,12.17-.46,24.34-.7,36.5-.23,11.47-.47,22.93-.7,34.4-.24,12.18-.51,24.35-.69,36.53-.27,18.27-.71,36.55-.67,54.82.1,45.95.47,91.9.62,137.85.04,11.07,5.47,19.25,13.05,26.53,1.99,1.91,3.97,3.09,6.82,1.96.81-.32,1.86-.08,2.79-.07,14.24.18,28.49.38,42.73.53,20.04.21,40.09.34,60.13.57,20.62.24,41.25.59,61.87.83,24.6.29,49.19.53,73.79.77,25.32.25,50.64.62,75.96.67,51.49.11,102.99.03,154.48.03h4.11c0-1.6.09-2.75-.02-3.88-.43-4.86-.79-9.72-1.43-14.55-.91-6.88-1.82-13.78-3.14-20.59-1.25-6.47-3.28-12.79-4.53-19.26-1.78-9.22-2.96-18.56-4.76-27.77-2.92-14.97-4.84-30.04-5.08-45.28-.1-6.64.25-13.3.71-19.93.38-5.43,1.01-10.86,1.9-16.23,1.94-11.7,7.28-22.15,12.26-32.75,3.48-7.41,7.65-13.78,16.42-15.56,7.91-1.61,15.75-4.52,23.69-4.77,7.71-.24,15.67,1.55,23.22,3.56,10.04,2.67,19.65,6.99,29.71,9.53,7.92,2,16.23,2.7,24.42,3.37,7.35.6,12.89-2.22,16.85-9.17,4.49-7.87,4.94-16.29,4.7-24.63ZM376.88,884.96c-2.48.37-5.01.49-7.5.36-1.15-.06-1.32.05-1.74,1.11-5.68,14.47-13.35,27.55-22.81,38.87-25.51,30.56-58.41,48.1-97.8,52.15-6.54.67-13.17.68-18,.69-1.77,0-3.32,0-4.55.04h-.1s-.09,0-.09,0c-40.8-4.04-71.66-18.26-97.1-44.73-19.92-20.73-32.71-46.04-38-75.23-.26-1.44-.41-1.61-1.64-1.8-19.91-3.12-33.85-20.99-32.41-41.55,1.35-19.28,18.28-35.08,37.74-35.21,3.19-.02,4.23-.72,5.56-3.75,20.58-47,55.98-76.04,105.23-86.32,56.98-11.89,115.44,11.72,148.92,60.15,11.67,16.88,19.48,36.12,23.21,57.21.22,1.24.32,1.35,1.38,1.52,18.77,3,32.85,19.15,32.75,37.56-.11,20.08-13.69,36.1-33.03,38.96Z"/>
  </g>
  <path class="cls-1" d="M996.85,777.48c-.09-10.55,0-21.11-.09-31.66-.19-22.96-.42-45.93-.71-68.89-.13-10.53-.44-21.05-.69-31.58-.22-9.59-.48-19.17-.7-28.76-.25-10.64-.48-21.28-.7-31.91-.25-11.69-.57-23.39-.68-35.08-.12-12.26-.03-24.51-.03-37.16-5.95.53-10.87.98-15.8,1.41-5.01.44-10,1-15.02,1.26-11.34.57-22.68.9-34.02,1.49-11.32.59-22.63,1.26-33.93,2.1-13.84,1.03-27.65,2.55-41.5,3.33-12.52.71-25.21,2.48-37.46-1.9-14.51-5.19-25.06-14.97-31.94-28.66-7.02-13.98-6.77-28.79-4.04-43.66,2.15-11.69,5.6-23.18,7.17-34.93,1.17-8.81.4-17.89.2-26.85-.09-3.81-2.29-6.92-5.38-9.01-7.2-4.88-14.44-9.95-23.37-11.02-11.85-1.42-23.73-1.58-35.36,1.73-7.12,2.03-14.33,3.94-21.17,6.71-8.61,3.49-12.79,8.43-10.67,19.13,3.56,17.93,6.8,35.94,9.73,53.98,1.34,8.24,2.58,16.7,2.13,24.96-.61,11.2-3.91,21.91-11.96,30.45-4.18,4.43-9.85,5.67-15.44,6.43-6.78.93-13.67,1.13-20.52,1.5-13.75.74-27.5,1.74-41.26,1.96-10.14.16-20.29-.74-30.44-1.19-5.01-.22-10.01-.55-15.02-.74-12.85-.5-25.7-.88-38.54-1.46-6.4-.29-12.8-.86-19.19-1.39-2.46-.2-3.36.71-3.84,3.23-1.67,8.82-3.34,17.59-2.71,26.66.47,6.65.65,13.35.54,20.02-.3,18.01-.85,36.02-1.26,54.03-.27,11.81-.96,23.64-.58,35.43.47,14.62,5.37,28.09,14.06,39.8,4.11,5.53,10.15,9.59,17.64,7.34,8.48-2.55,16.85-5.59,24.98-9.09,12.24-5.26,24.92-8.94,38.07-10.23,10.78-1.06,21.51,1.44,29.53,8.89,7.82,7.26,13.72,16.38,16.98,26.84,2.97,9.52,5.97,19,5.78,29.2-.14,7.69.66,15.4.57,23.1-.2,16.45-5.87,31.09-15.68,44.16-1.21,1.61-3.06,2.96-4.9,3.84-10.58,5.03-21.77,6.79-33.47,6.56-15.07-.3-28.83-5.4-42.78-10.26-6.29-2.19-13.09-3.22-19.75-3.93-11.52-1.24-19.87,3.45-25.04,14.18-2.83,5.87-4.82,11.58-4.87,18.24-.06,7.87-1.68,15.73-1.77,23.61-.06,5.96,1.1,11.95,1.93,17.9,1.56,11.24,3.17,22.48,4.96,33.69,2.05,12.9,4.43,25.75,6.43,38.66,1.15,7.43,2.17,14.92,2.58,22.42.44,7.89.1,15.83.1,24.22h4.78c106.74,0,213.48.05,320.22-.03,28.37-.02,56.75-.4,85.12-.7,8.67-.09,17.34-.19,25.99-.76,8.32-.55,16.6-1.85,24.92-2.47,1.71-.13,3.84.97,5.25,2.13,2.59,2.14,4.6,1.22,5.8-1.03,2.98-5.61,5.85-11.42,5.98-17.92.38-18.84.63-37.69.73-56.54.12-23.1.02-46.2.09-69.3,0-2.41.58-4.82.89-7.22v-59.8c-.3-1.83-.86-3.65-.87-5.48ZM870.08,902.76c-5.01,15.45-14.95,27.33-27.86,36.84-4.1,3.01-8.5,5.61-13.05,8.6,6.39,10.45,12.67,21,22.13,29.18.87.75,1.65,1.69,2.23,2.68.87,1.48.48,2.87-1,3.73-.93.54-2.04,1.07-3.07,1.07-3.02,0-6.11.13-9.04-.48-16.84-3.51-31.4-11.33-43.51-23.59-.9-.91-1.69-1.13-2.88-.9-8.48,1.65-17.04,2.44-25.69,2.47-24.45.08-47.64-5.12-69.2-16.79-16.82-9.11-31.04-21.18-40.23-38.23-12.44-23.09-11.85-46,2.49-68.17,7.74-11.96,18.47-20.77,30.85-27.6,19.19-10.6,39.9-15.31,61.7-15.58,24.88-.31,48.48,4.91,70.42,16.81,16.75,9.09,30.78,21.19,40.12,38.07,9.11,16.47,11.43,33.83,5.57,51.91ZM958.66,667.39c-9.29,17.23-23.66,29.44-40.66,38.65-21.8,11.8-45.23,17.06-69.95,16.97-8.73-.03-17.39-.82-25.96-2.5-1.2-.23-2-.01-2.91.91-12.24,12.39-26.97,20.3-43.99,23.85-2.95.62-6.09.49-9.13.49-1.04,0-2.17-.54-3.11-1.08-1.49-.86-1.89-2.27-1.01-3.77.59-1,1.38-1.95,2.26-2.71,9.56-8.26,15.92-18.93,22.37-29.49-4.61-3.01-9.06-5.64-13.19-8.69-13.05-9.61-23.1-21.62-28.16-37.24-5.92-18.27-3.58-35.82,5.63-52.47,9.44-17.07,23.63-29.3,40.56-38.48,22.18-12.03,46.04-17.31,71.19-17,22.03.27,42.97,5.03,62.37,15.75,12.51,6.91,23.36,15.81,31.18,27.9,14.5,22.41,15.1,45.56,2.52,68.91Z"/>
  <g>
    <path class="cls-1" d="M726.54,173.77c-.94-1.13-1.92-2.3-3.33-3.13-2.73-1.61-7.02-1.62-10.85,3.14-7.64,9.5-16.49,15.23-27.07,17.51-11.52,2.49-23.32,1.05-37.12-4.52-2.06-.83-4.05-1.85-6.16-2.93-.86-.44-1.72-.88-2.58-1.3-4.35-2.15-8.98-.94-11.28,2.93-2.39,4.04-1,8.88,3.31,11.52.91.56,1.86,1.03,2.62,1.41,15.86,7.91,31.31,11.25,47.21,10.2,3.54-.24,5.29.98,6.47,4.5.96,2.88,1.9,5.78,2.84,8.67.77,2.36,1.53,4.72,2.31,7.07.84,2.52,2.45,4.49,4.55,5.54,1.1.55,2.3.82,3.52.82.9,0,1.81-.15,2.71-.45,4.42-1.5,6.46-5.97,4.95-10.88-1.11-3.61-2.26-7.21-3.41-10.8l-1.42-4.44c-1.45-4.55-.97-5.79,3.19-8.28,6.97-4.17,13.18-9.73,18.46-16.54.89-1.15,1.44-2.44,1.97-3.68.23-.53.46-1.09.75-1.68l.9-1.86-1.41-1.5c-.41-.44-.78-.88-1.13-1.31Z"/>
    <path class="cls-1" d="M710.66,101.09c4.66,7.54,11.82,12.58,21.28,15,7.65,1.95,15.87,2.03,25.14.23.79-.11,1.59-.25,2.38-.38,1.82-.31,3.54-.6,5.19-.6h0c.95,0,2,.45,2.28.75,5.67,6,12.58,10.38,21.1,13.41,9.55,3.39,19.93,4.95,32.73,4.9.32,0,.6,0,.82,0-.02.19-.05.4-.09.66-1.33,8.8-1.02,17.64.9,26.27.55,2.48,1.79,4.39,3.59,5.53,1.16.73,2.48,1.11,3.9,1.11.64,0,1.29-.08,1.96-.23,2.09-.47,3.82-1.7,4.87-3.45,1.13-1.89,1.39-4.24.73-6.61-3.68-13.27-1.44-24.97,6.85-35.79,5.17-6.75,8.43-13.37,9.96-20.22.8-3.57,1.21-7.54,1.29-12.51.03-1.87-.7-3.63-2.05-4.95-1.5-1.47-3.59-2.26-5.78-2.17-4.18.16-7.4,3.45-7.33,7.48.2,11.12-5.52,19.74-11.73,27.39-.66.81-2.17,1.6-3.25,1.68-10.76.85-20.91-.15-30.18-2.97-6.89-2.1-12.19-5.17-16.23-9.41-6.76-7.09-6.75-13.41.02-20.5,4.41-4.62,3.27-9,.73-11.57-1.49-1.51-3.33-2.3-5.32-2.3h-.02c-2.26,0-4.46,1.04-6.35,2.98-6.73,6.89-9.86,14.3-9.57,22.66.09,2.61-.32,3.1-2.91,3.54l-.65.11c-2.84.48-5.52.93-8.16.96-10.97.12-19.26-1.74-24.14-11.22-1.84-3.57-5.93-4.85-9.73-3.04-3.71,1.77-5.3,5.33-4.15,9.3.42,1.47,1.17,2.78,1.91,3.98Z"/>
    <path class="cls-1" d="M757.27,152.13c2.03-.66,3.7-2.12,4.7-4.12,2.1-4.18.33-9.04-4.12-11.3-11.57-5.87-23.02-7.59-37.12-5.56h-.03c-11.1,1.71-22.6,8.13-31.55,17.62-1.9,2.02-2.86,4.31-2.78,6.62.07,2.12,1.01,4.07,2.71,5.64,1.57,1.45,3.47,2.16,5.41,2.16,2.3,0,4.65-1,6.55-2.97,13.82-14.31,32.28-17.6,49.39-8.79,2.25,1.16,4.68,1.41,6.83.7Z"/>
    <path class="cls-1" d="M849.55,190.31l-1.94.31c-4.56.73-9.28,1.48-13.86,1.72-16.27.86-27.24-6.46-31.66-21.19-1.36-4.52-1.72-9.36-2.11-14.49-.11-1.41-.21-2.82-.34-4.21-.46-5.09-3.5-8.41-7.92-8.67-4.47-.26-8.08,3.05-8.63,7.89-.09.81-.18,1.75-.08,2.75l.31,3.03c.47,4.61.96,9.39,1.53,14.08.38,3.15-.07,3.96-2.87,5.11-7.84,3.22-16.21,2.99-25.62-.71-4.53-1.78-9.04-.13-10.95,4.01-1.98,4.28-.23,8.9,4.16,10.98,2.25,1.07,4.68,1.98,7.23,2.7,10.09,2.85,20.46,2.4,31.71-1.37,3.55-1.19,5.65-.68,7.76,1.86,5.24,6.32,12.53,10.7,21.67,13.02,4.68,1.19,9.49,1.78,14.54,1.78,3.97,0,8.07-.37,12.36-1.1l1.8-.25c1.68-.23,3.36-.47,5.04-.71.56-.08,1.07-.2,1.5-.31,5.43-1.38,8.16-5.44,6.94-10.34-1.11-4.49-5.16-6.75-10.56-5.9Z"/>
    <path class="cls-1" d="M995.42,260.91c-.13-35.87-.48-71.73-.75-107.6-.22-29.65-.43-59.29-.72-88.94-.15-15.33-.47-30.66-.68-45.99-.06-4.04.14-8.09-.09-12.11-.08-1.42-.7-3.48-1.72-4.04-2.14-1.17-4.71-2.02-7.13-2.12-6.08-.25-12.18-.02-18.28.04-18.41.18-36.81.37-55.22.56-27.07.28-54.14.56-81.21.84-21.44.23-42.88.46-64.33.69-21.56.24-43.13.47-64.69.71-20.86.23-41.71.68-62.57.65-28.94-.03-57.87-.45-86.81-.62-15.24-.09-30.48.09-45.72-.12-3.59-.05-4.74.95-4.49,4.54,1.06,14.85,2.32,29.71,2.72,44.59.32,11.86,2.41,23.4,5.96,34.48,5.22,16.29,6.66,32.91,6.8,49.76.13,15.02.73,30.06-2.7,44.93-1.96,8.49-4.29,16.99-9.84,23.58-9.34,11.1-22.18,16.22-36.47,16.88-9.63.45-18.47-3.73-27.31-6.99-8.78-3.23-17.28-7.22-25.96-10.74-7.72-3.13-15.86-3.97-24.05-3.16-8.37.83-14.32,6.31-20.1,11.82-2.83,2.7-3.67,5.95-3.5,9.81.41,9.11-.02,18.3.92,27.35.84,8.12,2.31,16.35,4.87,24.08,3.22,9.72,9.97,17.54,16.66,25.19,2.93,3.35,5.88,6.51,10.64,7.43,6.46,1.24,12.74.43,18.89-1.27,10.02-2.78,19.9-6.07,29.92-8.86,11.65-3.24,23.62-4.9,35.51-2.41,14.7,3.08,26.84,10.38,33.52,24.65,4.7,10.03,6.62,20.78,6.66,31.71.04,11.42-.72,22.85-1.36,34.26-.29,5.08-.91,10.17-1.79,15.19-2.06,11.73-4.94,23.35-6.4,35.15-1.46,11.76-1.54,23.69-2.32,35.55-.45,6.81-1.08,13.61-1.65,20.78,10.62.79,21.27,1.76,31.94,2.33,12.36.67,24.74.99,37.11,1.47,1.64.06,3.28.21,4.91.24,8.66.16,17.34.63,25.99.35,10.35-.33,20.67-1.49,31.02-1.93,7.61-.32,15.26.21,22.86-.17,4.22-.21,8.99-.47,12.44-2.53,7.51-4.47,10.2-13.46,8.35-22.3-2.13-10.18-4.03-20.41-5.92-30.64-2.14-11.59-4.49-23.16-6.11-34.83-.94-6.78-1.55-13.86-.69-20.59,1.98-15.52,11.75-24.99,26.3-29.55,19.73-6.19,39.79-10.6,60.68-9.27,2.62.17,5.31.54,7.81,1.32,9.49,2.97,17.77,8.08,25.59,14.2,6.27,4.91,10.16,11.12,12.05,18.65,3.27,13.01,2.13,26.14-.2,39.06-2.6,14.43-6.71,28.6-9.17,43.05-1.36,8.02-.22,16.34,4.6,23.46,1.69,2.49,4.23,4.4,5.97,6.86,3.43,4.84,8.21,7.34,13.73,8.88,8.18,2.28,16.43,1.21,24.66.61,4.15-.3,8.28-.95,12.41-1.5,8.15-1.09,16.29-2.26,24.44-3.33,7.01-.92,14.04-1.72,21.06-2.65,5.34-.7,10.65-1.68,16-2.25,8.21-.86,16.44-1.48,24.67-2.19,10.76-.93,21.53-1.82,32.29-2.78,5.63-.51,11.25-1.14,16.79-1.7.35-3.63.87-6.98.96-10.34.33-11.1.51-22.21.74-33.32.25-12.28.49-24.57.7-36.85.25-14.28.62-28.56.68-42.84.12-33.04.19-66.08.08-99.12ZM937.36,214.95c-4.66,7.47-11.27,10.85-20.79,10.59-.33,0-.57-.05-.7-.08l-.78-.74c-2.71-2.58-5.52-5.25-7.93-8.06-1.55-1.81-1.97-3.32-.13-7.04,2.67-5.44,5.12-11.09,7.28-16.79.93-2.45.86-4.95-.19-7.04-1-2.01-2.81-3.48-5.09-4.14-2.21-.64-4.35-.43-6.2.59-2.03,1.13-3.49,3.13-4.24,5.8-4.02,14.37-12.96,24.77-27.32,31.8-.15.07-.3.15-.46.22-.34.16-.67.31-1,.49-4.28,2.29-5.91,6.82-3.96,11.01.9,1.94,2.59,3.47,4.62,4.21,2.06.75,4.31.64,6.31-.3,3.2-1.5,6.57-3.36,10.31-5.66,4.3-2.65,7.05-2.41,10.49.93,3.82,3.7,7.64,7.41,11.43,11.14,2.01,1.97,3.03,4.24,2.89,6.39-.12,1.89-1.16,3.63-3.01,5.02-4.78,3.61-6.05,7.33-4.52,13.26,3.42,13.23-.3,24.85-11.05,34.54-6.1,5.5-12.54,9.45-19.15,11.72-3.13,1.08-7.06,1.32-10.53.65-3.6-.69-7.1-1.92-10.81-3.21-1.98-.69-4.03-1.41-6.09-2.03-1.32-.4-2.56-.24-3.56-.12-.29.04-.58.08-.86.09l-5.58.24,3.28,4.52c.15.21.29.46.43.7.55.95,1.29,2.26,2.75,2.97,9.65,4.7,18.08,11.23,25.06,19.43,3.4,3.99,5.45,8.82,6.47,15.19.44,2.75-1.11,5.19-3.76,5.94-2.31.65-5.06-.48-5.68-2.32-3.62-10.86-12.38-16.03-20.46-19.66-6.85-3.07-13.84-6.09-20.61-9.02-2.63-1.14-5.26-2.27-7.89-3.41-8.36-3.63-15.81-7.08-22.26-12.55-5.65-4.78-9.34-10.39-11.21-17.05.87.09,1.74.18,2.6.26,4.88.5,9.49.96,14.23,1.15,15.27.6,31.39-1.15,50.72-5.5,8.47-1.91,16.98-4.18,25.21-6.37,3.11-.83,6.23-1.66,9.35-2.48,3.45-.9,5.56-2.23,6.65-4.2.57-1.03,1.11-2.74.39-5.03-1.83-5.9-7.8-4.43-10.67-3.72-9.8,2.41-19.55,4.62-28.98,6.55-1.52.31-2.38.13-2.69-.14-.34-.31-.65-1.27-.48-3.03.71-7.47-.48-14.7-3.51-21.5-4.42-9.9-11.76-16.91-21.81-20.83-9.74-3.81-20.44-5.23-32.7-4.36-2.89.21-5.26,1.28-6.84,3.12-1.39,1.62-2.03,3.66-1.85,5.91.37,4.69,4.28,7.67,9.68,7.4,9.59-.46,16.8.29,23.36,2.43,12,3.92,18.9,14.81,17.19,27.1-.28,2.01-.98,2.92-2.77,3.61-7.53,2.9-15.59,3.38-21.78,3.48-18.96.3-34.93-3.24-48.79-10.87-8.87-4.88-13.33-12.63-13.62-23.71-.12-4.51,1.95-8.69,6.14-12.43,2.54-2.26,5.55-4.23,8.47-6.14l.67-.44c4.53-2.96,5.99-7.49,3.72-11.54-2.42-4.31-7.19-5.47-11.88-2.89-8.26,4.55-19.63,12.35-22.92,27.4-.64,2.94-.84,6.24-.6,10.07.31,4.87-2.54,5.23-3.48,5.35-3.71.46-7.41.94-11.12,1.42-14.76,1.9-30.01,3.85-45.04,5.01-6.19.48-12.91-1.11-19.39-2.65l-1.33-.31c-5.92-1.4-10.3-4.93-12.66-10.23-.54-1.2-.64-1.8-.66-2.05.17-.1.55-.29,1.33-.49,4.04-1.02,8.56-1.56,13.09-1.56h.08c3.11,0,10.5.01,11.28-7.31.3-2.79-.68-4.65-1.56-5.72-1.67-2.03-4.46-3.18-8.52-3.53-7.71-.66-18.96-.54-28.23,7.82-.24-.02-.53-.07-.66-.13-10.24-5.65-16.33-13.76-18.62-24.81-4.2-20.27-1.56-37.82,8.05-53.64,5.01-8.24,10.59-10.43,18.68-7.31,4.24,1.63,8.19,4,12.38,6.51,1.54.92,3.08,1.85,4.64,2.73.74.42,1.49,1.03,2.29,1.67.67.54,1.36,1.09,2.13,1.61,3.64,2.46,8.29,1.9,11.04-1.34,2.91-3.42,2.57-8.35-.8-11.47-1.55-1.44-3.32-2.77-5.26-3.98l-.17-.1c-4.59-2.86-9.34-5.81-14.18-8.5-3.6-2-3.61-4.39-3.31-6.02.62-3.38,1.71-6.41,3.15-8.78,4.15-6.84,9.71-12.82,16.55-17.77,2.11-1.52,4.53-2.71,6.81-3.34,4.23-1.17,6.56-.13,8.92,3.98l2.17,3.79c1.47,2.58,2.95,5.16,4.44,7.72,4.62,7.92,10.43,5.53,12.1,4.6,3.46-1.91,5.9-6.26,2.34-12.75-2.18-3.97-4.89-8.92-7.3-13.73-3.47-6.92-2.05-11.24,4.93-14.9,15.97-8.37,33.61-14.1,53.91-17.52l2.52-.43c9.63-1.64,18.74-3.19,28.09-2.1,12.23,1.43,20.03,7.16,23.83,17.51.79,2.15.67,5.01.56,7.79l-.04,1.16c-.2,5.8,2.51,9.55,7.23,10.02,4.94.48,8.59-2.76,9.27-8.28.83-6.71-.39-13.48-3.61-20.11-.01-.03-.03-.06-.04-.09.03-.02.06-.04.09-.07,6.19-4.28,13.12-6.1,20.58-5.42,18.99,1.73,33.94,8.27,45.71,19.99,7.18,7.15,8.75,15.83,4.32,23.8-2.09,3.76-5.04,7.12-8.41,10.8-1.57,1.72-3.41,3.25-5.35,4.86-1.06.88-2.15,1.79-3.21,2.74-3.62,3.25-4.08,8.16-1.11,11.67,2.94,3.47,7.86,3.95,11.45,1.13,7.46-5.86,15.75-13.27,20.71-23.83.98-2.09,2.17-2.77,4.89-2.77h.02c5.45,0,10.17,2.52,14.85,7.9,6.08,6.98,8.36,15.51,6.98,26.1-.05.42-.12.68-.17.85-.17,0-.44-.02-.83-.1-12.56-2.43-24.33-.49-34.98,5.78-5.57,3.28-10.7,7.33-15.66,11.25l-2.15,1.7c-1.95,1.53-3.12,3.61-3.3,5.86-.18,2.25.64,4.46,2.29,6.23,3.22,3.46,8.26,3.51,12,.11,8.92-8.11,17.44-12.76,26.8-14.63,10.11-2.02,19.45-.94,27.72,3.22,4.25,2.13,6.63,5.78,7.29,11.15,1.99,16.25-.75,30.1-8.4,42.36Z"/>
  </g>
</svg>